# xmcd
#
# Track frame offsets: 
#        150
#        21539
#        50555
#        85090
#        106913
#        126780
#        146266
#        159813
#        191286
#        207165
#        234181
#        263750
#
# Disc length: 3731 seconds
#
# Revision: 2
# Processed by: cddbd v1.5.2PL0 Copyright (c) Steve Scherf et al.
# Submitted via: ExactAudioCopy v1.0b3
#
DISCID=920e910c
DTITLE=Gregory Porter - Be Good
DYEAR=2012
DGENRE=Soul
TTITLE0=Painted On Canvas
TTITLE1=Be Good (Lion's Song)
TTITLE2=On My Way To Harlem
TTITLE3=Real Good Hands
TTITLE4=The Way You Want To Live
TTITLE5=When Did You Learn
TTITLE6=Imitation Of Life
TTITLE7=Mother's Song
TTITLE8=Our Love
TTITLE9=Bling Bling
TTITLE10=Work Song
TTITLE11=God Bless The Child
EXTD=YEAR: 2012
EXTT0=
EXTT1=
EXTT2=
EXTT3=
EXTT4=
EXTT5=
EXTT6=
EXTT7=
EXTT8=
EXTT9=
EXTT10=
EXTT11=
PLAYORDER=
